{
    "asset" : {
        "generator" : "Khronos glTF Blender I/O v1.5.17",
        "version" : "2.0"
    },
    "scene" : 0,
    "scenes" : [
        {
            "name" : "Scene",
            "nodes" : [
                0,
                1,
                2
            ]
        }
    ],
    "nodes" : [
        {
            "mesh" : 0,
            "name" : "Plane.004",
            "translation" : [
                0.2658851742744446,
                0,
                0
            ]
        },
        {
            "name" : "Camera",
            "rotation" : [
                0.483536034822464,
                0.33687159419059753,
                -0.20870360732078552,
                0.7804827094078064
            ],
            "translation" : [
                7.358891487121582,
                4.958309173583984,
                6.925790786743164
            ]
        },
        {
            "mesh" : 1,
            "name" : "Plane.001",
            "rotation" : [
                -0.05728764832019806,
                0.9978865385055542,
                0.0017577550606802106,
                0.03061811998486519
            ],
            "translation" : [
                -0.21962091326713562,
                0.038566336035728455,
                0
            ]
        }
    ],
    "animations" : [
        {
            "channels" : [
                {
                    "sampler" : 0,
                    "target" : {
                        "node" : 0,
                        "path" : "weights"
                    }
                },
                {
                    "sampler" : 1,
                    "target" : {
                        "node" : 2,
                        "path" : "weights"
                    }
                }
            ],
            "name" : "Key.003Action",
            "samplers" : [
                {
                    "input" : 11,
                    "interpolation" : "LINEAR",
                    "output" : 12
                },
                {
                    "input" : 11,
                    "interpolation" : "LINEAR",
                    "output" : 13
                }
            ]
        },
        {
            "channels" : [
                {
                    "sampler" : 0,
                    "target" : {
                        "node" : 0,
                        "path" : "translation"
                    }
                },
                {
                    "sampler" : 1,
                    "target" : {
                        "node" : 0,
                        "path" : "rotation"
                    }
                },
                {
                    "sampler" : 2,
                    "target" : {
                        "node" : 2,
                        "path" : "translation"
                    }
                },
                {
                    "sampler" : 3,
                    "target" : {
                        "node" : 2,
                        "path" : "rotation"
                    }
                }
            ],
            "name" : "Plane.004Action",
            "samplers" : [
                {
                    "input" : 14,
                    "interpolation" : "LINEAR",
                    "output" : 15
                },
                {
                    "input" : 14,
                    "interpolation" : "LINEAR",
                    "output" : 16
                },
                {
                    "input" : 14,
                    "interpolation" : "LINEAR",
                    "output" : 17
                },
                {
                    "input" : 14,
                    "interpolation" : "LINEAR",
                    "output" : 18
                }
            ]
        }
    ],
    "materials" : [
        {
            "doubleSided" : true,
            "name" : "Material.001",
            "pbrMetallicRoughness" : {
                "baseColorTexture" : {
                    "index" : 0
                },
                "metallicFactor" : 0,
                "roughnessFactor" : 0.7709090709686279
            }
        },
        {
            "doubleSided" : true,
            "name" : "Material.005",
            "pbrMetallicRoughness" : {
                "baseColorTexture" : {
                    "index" : 1
                },
                "metallicFactor" : 0,
                "roughnessFactor" : 0.7709090709686279
            }
        }
    ],
    "meshes" : [
        {
            "extras" : {
                "targetNames" : [
                    "Key 1"
                ]
            },
            "name" : "Plane.009",
            "primitives" : [
                {
                    "attributes" : {
                        "POSITION" : 0,
                        "NORMAL" : 1,
                        "TEXCOORD_0" : 2
                    },
                    "indices" : 3,
                    "material" : 0,
                    "targets" : [
                        {
                            "POSITION" : 4,
                            "NORMAL" : 5
                        }
                    ]
                }
            ],
            "weights" : [
                1
            ]
        },
        {
            "extras" : {
                "targetNames" : [
                    "Key 1"
                ]
            },
            "name" : "Plane.005",
            "primitives" : [
                {
                    "attributes" : {
                        "POSITION" : 6,
                        "NORMAL" : 7,
                        "TEXCOORD_0" : 8
                    },
                    "indices" : 3,
                    "material" : 1,
                    "targets" : [
                        {
                            "POSITION" : 9,
                            "NORMAL" : 10
                        }
                    ]
                }
            ],
            "weights" : [
                1
            ]
        }
    ],
    "textures" : [
        {
            "sampler" : 0,
            "source" : 0
        },
        {
            "sampler" : 0,
            "source" : 0
        }
    ],
    "images" : [
        {
            "bufferView" : 4,
            "mimeType" : "image/png",
            "name" : "baconMap"
        }
    ],
    "accessors" : [
        {
            "bufferView" : 0,
            "componentType" : 5126,
            "count" : 3201,
            "max" : [
                0.2786540687084198,
                0.07610376179218292,
                0.903023362159729
            ],
            "min" : [
                -0.2835140824317932,
                -0.16548259556293488,
                -1.0096145868301392
            ],
            "type" : "VEC3"
        },
        {
            "bufferView" : 1,
            "componentType" : 5126,
            "count" : 3201,
            "type" : "VEC3"
        },
        {
            "bufferView" : 2,
            "componentType" : 5126,
            "count" : 3201,
            "type" : "VEC2"
        },
        {
            "bufferView" : 3,
            "componentType" : 5123,
            "count" : 18432,
            "type" : "SCALAR"
        },
        {
            "bufferView" : 5,
            "componentType" : 5126,
            "count" : 3201,
            "max" : [
                0,
                0.09236463904380798,
                0.0022439956665039062
            ],
            "min" : [
                -0.007638156414031982,
                0,
                0
            ],
            "type" : "VEC3"
        },
        {
            "bufferView" : 6,
            "componentType" : 5126,
            "count" : 3201,
            "type" : "VEC3"
        },
        {
            "bufferView" : 7,
            "componentType" : 5126,
            "count" : 3201,
            "max" : [
                0.2786540687084198,
                0.07610376179218292,
                0.903023362159729
            ],
            "min" : [
                -0.2835140824317932,
                -0.16548259556293488,
                -1.0096145868301392
            ],
            "type" : "VEC3"
        },
        {
            "bufferView" : 8,
            "componentType" : 5126,
            "count" : 3201,
            "type" : "VEC3"
        },
        {
            "bufferView" : 9,
            "componentType" : 5126,
            "count" : 3201,
            "type" : "VEC2"
        },
        {
            "bufferView" : 10,
            "componentType" : 5126,
            "count" : 3201,
            "max" : [
                0,
                0.09236463904380798,
                0.0022439956665039062
            ],
            "min" : [
                -0.007638156414031982,
                0,
                0
            ],
            "type" : "VEC3"
        },
        {
            "bufferView" : 11,
            "componentType" : 5126,
            "count" : 3201,
            "type" : "VEC3"
        },
        {
            "bufferView" : 12,
            "componentType" : 5126,
            "count" : 109,
            "max" : [
                4.983333309491475
            ],
            "min" : [
                0.4833333094914754
            ],
            "type" : "SCALAR"
        },
        {
            "bufferView" : 13,
            "componentType" : 5126,
            "count" : 109,
            "type" : "SCALAR"
        },
        {
            "bufferView" : 14,
            "componentType" : 5126,
            "count" : 109,
            "type" : "SCALAR"
        },
        {
            "bufferView" : 15,
            "componentType" : 5126,
            "count" : 120,
            "max" : [
                4.975000001490116
            ],
            "min" : [
                0.016666668156782787
            ],
            "type" : "SCALAR"
        },
        {
            "bufferView" : 16,
            "componentType" : 5126,
            "count" : 120,
            "type" : "VEC3"
        },
        {
            "bufferView" : 17,
            "componentType" : 5126,
            "count" : 120,
            "type" : "VEC4"
        },
        {
            "bufferView" : 18,
            "componentType" : 5126,
            "count" : 120,
            "type" : "VEC3"
        },
        {
            "bufferView" : 19,
            "componentType" : 5126,
            "count" : 120,
            "type" : "VEC4"
        }
    ],
    "bufferViews" : [
        {
            "buffer" : 0,
            "byteLength" : 38412,
            "byteOffset" : 0
        },
        {
            "buffer" : 0,
            "byteLength" : 38412,
            "byteOffset" : 38412
        },
        {
            "buffer" : 0,
            "byteLength" : 25608,
            "byteOffset" : 76824
        },
        {
            "buffer" : 0,
            "byteLength" : 36864,
            "byteOffset" : 102432
        },
        {
            "buffer" : 0,
            "byteLength" : 75475,
            "byteOffset" : 139296
        },
        {
            "buffer" : 0,
            "byteLength" : 38412,
            "byteOffset" : 214772
        },
        {
            "buffer" : 0,
            "byteLength" : 38412,
            "byteOffset" : 253184
        },
        {
            "buffer" : 0,
            "byteLength" : 38412,
            "byteOffset" : 291596
        },
        {
            "buffer" : 0,
            "byteLength" : 38412,
            "byteOffset" : 330008
        },
        {
            "buffer" : 0,
            "byteLength" : 25608,
            "byteOffset" : 368420
        },
        {
            "buffer" : 0,
            "byteLength" : 38412,
            "byteOffset" : 394028
        },
        {
            "buffer" : 0,
            "byteLength" : 38412,
            "byteOffset" : 432440
        },
        {
            "buffer" : 0,
            "byteLength" : 436,
            "byteOffset" : 470852
        },
        {
            "buffer" : 0,
            "byteLength" : 436,
            "byteOffset" : 471288
        },
        {
            "buffer" : 0,
            "byteLength" : 436,
            "byteOffset" : 471724
        },
        {
            "buffer" : 0,
            "byteLength" : 480,
            "byteOffset" : 472160
        },
        {
            "buffer" : 0,
            "byteLength" : 1440,
            "byteOffset" : 472640
        },
        {
            "buffer" : 0,
            "byteLength" : 1920,
            "byteOffset" : 474080
        },
        {
            "buffer" : 0,
            "byteLength" : 1440,
            "byteOffset" : 476000
        },
        {
            "buffer" : 0,
            "byteLength" : 1920,
            "byteOffset" : 477440
        }
    ],
    "samplers" : [
        {
            "magFilter" : 9729,
            "minFilter" : 9987,
            "wrapS" : 33071,
            "wrapT" : 33071
        }
    ],
    "buffers" : [
        {
            "byteLength" : 479360,
            "uri" : "data:application/octet-stream;base64,"
        }
    ]
}
