{
    "asset" : {
        "generator" : "Khronos glTF Blender I/O v1.6.16",
        "version" : "2.0"
    },
    "scene" : 0,
    "scenes" : [
        {
            "name" : "Scene",
            "nodes" : [
                0
            ]
        }
    ],
    "nodes" : [
        {
            "mesh" : 0,
            "name" : "Cylinder.002",
            "scale" : [
                1.0275511741638184,
                0.7364922761917114,
                1.0275511741638184
            ],
            "translation" : [
                0,
                0.14999999105930328,
                0
            ]
        }
    ],
    "materials" : [
        {
            "doubleSided" : true,
            "name" : "bread_outside._top.004",
            "pbrMetallicRoughness" : {
                "baseColorTexture" : {
                    "index" : 0
                },
                "metallicFactor" : 0,
                "roughnessFactor" : 0.5981818437576294
            }
        }
    ],
    "meshes" : [
        {
            "name" : "Cylinder",
            "primitives" : [
                {
                    "attributes" : {
                        "POSITION" : 0,
                        "NORMAL" : 1,
                        "TEXCOORD_0" : 2
                    },
                    "indices" : 3,
                    "material" : 0
                }
            ]
        }
    ],
    "textures" : [
        {
            "sampler" : 0,
            "source" : 0
        }
    ],
    "images" : [
        {
            "bufferView" : 4,
            "mimeType" : "image/png",
            "name" : "bread_down"
        }
    ],
    "accessors" : [
        {
            "bufferView" : 0,
            "componentType" : 5126,
            "count" : 50055,
            "max" : [
                1.0095365047454834,
                0.23743386566638947,
                1.0092743635177612
            ],
            "min" : [
                -1.009070634841919,
                -0.2539379298686981,
                -1.010116696357727
            ],
            "type" : "VEC3"
        },
        {
            "bufferView" : 1,
            "componentType" : 5126,
            "count" : 50055,
            "type" : "VEC3"
        },
        {
            "bufferView" : 2,
            "componentType" : 5126,
            "count" : 50055,
            "type" : "VEC2"
        },
        {
            "bufferView" : 3,
            "componentType" : 5123,
            "count" : 291048,
            "type" : "SCALAR"
        }
    ],
    "bufferViews" : [
        {
            "buffer" : 0,
            "byteLength" : 600660,
            "byteOffset" : 0
        },
        {
            "buffer" : 0,
            "byteLength" : 600660,
            "byteOffset" : 600660
        },
        {
            "buffer" : 0,
            "byteLength" : 400440,
            "byteOffset" : 1201320
        },
        {
            "buffer" : 0,
            "byteLength" : 582096,
            "byteOffset" : 1601760
        },
        {
            "buffer" : 0,
            "byteLength" : 446319,
            "byteOffset" : 2183856
        }
    ],
    "samplers" : [
        {
            "magFilter" : 9729,
            "minFilter" : 9987
        }
    ],
    "buffers" : [
        {
            "byteLength" : 2630176,
            "uri" : "data:application/octet-stream;base64,"
        }
    ]
}
