{
    "asset" : {
        "generator" : "Khronos glTF Blender I/O v1.5.17",
        "version" : "2.0"
    },
    "scene" : 0,
    "scenes" : [
        {
            "name" : "Scene",
            "nodes" : [
                12
            ]
        }
    ],
    "nodes" : [
        {
            "mesh" : 0,
            "name" : "Body_Metal_0"
        },
        {
            "children" : [
                0
            ],
            "name" : "Body"
        },
        {
            "mesh" : 1,
            "name" : "Rubber_Handle_Rubber_Handle1_0"
        },
        {
            "children" : [
                2
            ],
            "name" : "Rubber_Handle",
            "rotation" : [
                0,
                0,
                0.02061837539076805,
                0.999787449836731
            ],
            "translation" : [
                -2.8021637263009325e-05,
                0.031672313809394836,
                0
            ]
        },
        {
            "mesh" : 2,
            "name" : "Screw_Metal_0"
        },
        {
            "children" : [
                4
            ],
            "name" : "Screw",
            "rotation" : [
                0,
                0,
                0.02061837539076805,
                0.999787449836731
            ],
            "translation" : [
                -2.8021637263009325e-05,
                0.031672313809394836,
                0
            ]
        },
        {
            "mesh" : 3,
            "name" : "Screw1_Metal_0"
        },
        {
            "children" : [
                6
            ],
            "name" : "Screw1",
            "rotation" : [
                0,
                0,
                0.02061837539076805,
                0.999787449836731
            ],
            "translation" : [
                2.13685941696167,
                0.06548625975847244,
                0
            ]
        },
        {
            "children" : [
                1,
                3,
                5,
                7
            ],
            "name" : "Spatula",
            "rotation" : [
                -0.00024049925559666008,
                1.4864005606796127e-05,
                -0.014683366753160954,
                0.9998921751976013
            ],
            "translation" : [
                -0.002248388947919011,
                -0.06034030020236969,
                0
            ]
        },
        {
            "children" : [
                8
            ],
            "name" : "RootNode"
        },
        {
            "children" : [
                9
            ],
            "name" : "fea408ee12574e5bad481e742a2e744b.fbx",
            "rotation" : [
                0.7071068286895752,
                0,
                0,
                0.7071068286895752
            ]
        },
        {
            "children" : [
                10
            ],
            "name" : "RootNode (model correction matrix)",
            "translation" : [
                0.0077926041558384895,
                0.00011985911260126159,
                0.12578998506069183
            ]
        },
        {
            "children" : [
                11
            ],
            "name" : "RootNode (gltf orientation matrix)",
            "rotation" : [
                -0.7071068286895752,
                0,
                0,
                0.7071068286895752
            ]
        }
    ],
    "materials" : [
        {
            "doubleSided" : true,
            "name" : "Metal",
            "pbrMetallicRoughness" : {
                "roughnessFactor" : 0.25
            }
        },
        {
            "doubleSided" : true,
            "name" : "Rubber_Handle1",
            "pbrMetallicRoughness" : {
                "baseColorFactor" : [
                    0.4429355263710022,
                    0.056781791150569916,
                    0.056781791150569916,
                    1
                ],
                "metallicFactor" : 0,
                "roughnessFactor" : 0.6000000238418579
            }
        }
    ],
    "meshes" : [
        {
            "name" : "Body_Metal_0",
            "primitives" : [
                {
                    "attributes" : {
                        "POSITION" : 0,
                        "NORMAL" : 1,
                        "TEXCOORD_0" : 2
                    },
                    "indices" : 3,
                    "material" : 0
                }
            ]
        },
        {
            "name" : "Rubber_Handle_Rubber_Handle1_0",
            "primitives" : [
                {
                    "attributes" : {
                        "POSITION" : 4,
                        "NORMAL" : 5,
                        "TEXCOORD_0" : 6
                    },
                    "indices" : 7,
                    "material" : 1
                }
            ]
        },
        {
            "name" : "Screw_Metal_0",
            "primitives" : [
                {
                    "attributes" : {
                        "POSITION" : 8,
                        "NORMAL" : 9,
                        "TEXCOORD_0" : 10
                    },
                    "indices" : 11,
                    "material" : 0
                }
            ]
        },
        {
            "name" : "Screw1_Metal_0",
            "primitives" : [
                {
                    "attributes" : {
                        "POSITION" : 12,
                        "NORMAL" : 13,
                        "TEXCOORD_0" : 14
                    },
                    "indices" : 11,
                    "material" : 0
                }
            ]
        }
    ],
    "accessors" : [
        {
            "bufferView" : 0,
            "componentType" : 5126,
            "count" : 1388,
            "max" : [
                6.427783966064453,
                1.0625128746032715,
                1.4261385202407837
            ],
            "min" : [
                -6.148931980133057,
                -0.5392184853553772,
                -1.4261385202407837
            ],
            "type" : "VEC3"
        },
        {
            "bufferView" : 1,
            "componentType" : 5126,
            "count" : 1388,
            "type" : "VEC3"
        },
        {
            "bufferView" : 2,
            "componentType" : 5126,
            "count" : 1388,
            "type" : "VEC2"
        },
        {
            "bufferView" : 3,
            "componentType" : 5123,
            "count" : 5094,
            "type" : "SCALAR"
        },
        {
            "bufferView" : 4,
            "componentType" : 5126,
            "count" : 650,
            "max" : [
                5.736949920654297,
                0.03940051794052124,
                0.32178425788879395
            ],
            "min" : [
                2.195814609527588,
                -0.535320520401001,
                -0.32178425788879395
            ],
            "type" : "VEC3"
        },
        {
            "bufferView" : 5,
            "componentType" : 5126,
            "count" : 650,
            "type" : "VEC3"
        },
        {
            "bufferView" : 6,
            "componentType" : 5126,
            "count" : 650,
            "type" : "VEC2"
        },
        {
            "bufferView" : 7,
            "componentType" : 5123,
            "count" : 2784,
            "type" : "SCALAR"
        },
        {
            "bufferView" : 8,
            "componentType" : 5126,
            "count" : 350,
            "max" : [
                3.0322482585906982,
                -0.2013741433620453,
                0.11677480489015579
            ],
            "min" : [
                2.798698663711548,
                -0.34200939536094666,
                -0.11677480489015579
            ],
            "type" : "VEC3"
        },
        {
            "bufferView" : 9,
            "componentType" : 5126,
            "count" : 350,
            "type" : "VEC3"
        },
        {
            "bufferView" : 10,
            "componentType" : 5126,
            "count" : 350,
            "type" : "VEC2"
        },
        {
            "bufferView" : 11,
            "componentType" : 5123,
            "count" : 438,
            "type" : "SCALAR"
        },
        {
            "bufferView" : 12,
            "componentType" : 5126,
            "count" : 350,
            "max" : [
                3.0322482585906982,
                -0.2013741433620453,
                0.11677480489015579
            ],
            "min" : [
                2.798698663711548,
                -0.34200939536094666,
                -0.11677480489015579
            ],
            "type" : "VEC3"
        },
        {
            "bufferView" : 13,
            "componentType" : 5126,
            "count" : 350,
            "type" : "VEC3"
        },
        {
            "bufferView" : 14,
            "componentType" : 5126,
            "count" : 350,
            "type" : "VEC2"
        }
    ],
    "bufferViews" : [
        {
            "buffer" : 0,
            "byteLength" : 16656,
            "byteOffset" : 0
        },
        {
            "buffer" : 0,
            "byteLength" : 16656,
            "byteOffset" : 16656
        },
        {
            "buffer" : 0,
            "byteLength" : 11104,
            "byteOffset" : 33312
        },
        {
            "buffer" : 0,
            "byteLength" : 10188,
            "byteOffset" : 44416
        },
        {
            "buffer" : 0,
            "byteLength" : 7800,
            "byteOffset" : 54604
        },
        {
            "buffer" : 0,
            "byteLength" : 7800,
            "byteOffset" : 62404
        },
        {
            "buffer" : 0,
            "byteLength" : 5200,
            "byteOffset" : 70204
        },
        {
            "buffer" : 0,
            "byteLength" : 5568,
            "byteOffset" : 75404
        },
        {
            "buffer" : 0,
            "byteLength" : 4200,
            "byteOffset" : 80972
        },
        {
            "buffer" : 0,
            "byteLength" : 4200,
            "byteOffset" : 85172
        },
        {
            "buffer" : 0,
            "byteLength" : 2800,
            "byteOffset" : 89372
        },
        {
            "buffer" : 0,
            "byteLength" : 876,
            "byteOffset" : 92172
        },
        {
            "buffer" : 0,
            "byteLength" : 4200,
            "byteOffset" : 93048
        },
        {
            "buffer" : 0,
            "byteLength" : 4200,
            "byteOffset" : 97248
        },
        {
            "buffer" : 0,
            "byteLength" : 2800,
            "byteOffset" : 101448
        }
    ],
    "buffers" : [
        {
            "byteLength" : 104248,
            "uri" : "data:application/octet-stream;base64,"
        }
    ]
}
