{
    "asset" : {
        "generator" : "Khronos glTF Blender I/O v1.5.17",
        "version" : "2.0"
    },
    "scene" : 0,
    "scenes" : [
        {
            "name" : "Scene",
            "nodes" : [
                0,
                1,
                2
            ]
        }
    ],
    "nodes" : [
        {
            "mesh" : 0,
            "name" : "Cylinder.007",
            "rotation" : [
                -0.010580257512629032,
                -0.1868773102760315,
                -0.0028448381926864386,
                0.9823221564292908
            ],
            "scale" : [
                0.800000011920929,
                0.800000011920929,
                0.800000011920929
            ],
            "translation" : [
                0.02232614904642105,
                0.11578502506017685,
                -0.00874723494052887
            ]
        },
        {
            "mesh" : 1,
            "name" : "Cylinder.008",
            "scale" : [
                0.800000011920929,
                0.800000011920929,
                0.800000011920929
            ],
            "translation" : [
                -0.10168399661779404,
                0,
                0.20782074332237244
            ]
        },
        {
            "name" : "Camera",
            "rotation" : [
                0.483536034822464,
                0.33687159419059753,
                -0.20870360732078552,
                0.7804827094078064
            ],
            "translation" : [
                7.358891487121582,
                4.958309173583984,
                6.925790786743164
            ]
        }
    ],
    "animations" : [
        {
            "channels" : [
                {
                    "sampler" : 0,
                    "target" : {
                        "node" : 0,
                        "path" : "translation"
                    }
                },
                {
                    "sampler" : 1,
                    "target" : {
                        "node" : 0,
                        "path" : "rotation"
                    }
                }
            ],
            "name" : "Cylinder.007Action",
            "samplers" : [
                {
                    "input" : 14,
                    "interpolation" : "LINEAR",
                    "output" : 15
                },
                {
                    "input" : 14,
                    "interpolation" : "LINEAR",
                    "output" : 16
                }
            ]
        },
        {
            "channels" : [
                {
                    "sampler" : 0,
                    "target" : {
                        "node" : 1,
                        "path" : "translation"
                    }
                },
                {
                    "sampler" : 1,
                    "target" : {
                        "node" : 1,
                        "path" : "rotation"
                    }
                }
            ],
            "name" : "Cylinder.008Action",
            "samplers" : [
                {
                    "input" : 14,
                    "interpolation" : "LINEAR",
                    "output" : 17
                },
                {
                    "input" : 14,
                    "interpolation" : "LINEAR",
                    "output" : 18
                }
            ]
        }
    ],
    "materials" : [
        {
            "doubleSided" : true,
            "name" : "side",
            "pbrMetallicRoughness" : {
                "baseColorFactor" : [
                    0.8000000715255737,
                    0.018997561186552048,
                    0.0001853626308729872,
                    1
                ],
                "metallicFactor" : 0,
                "roughnessFactor" : 0.291818231344223
            }
        },
        {
            "doubleSided" : true,
            "name" : "onion_top",
            "pbrMetallicRoughness" : {
                "baseColorTexture" : {
                    "index" : 0
                },
                "metallicFactor" : 0,
                "roughnessFactor" : 0.5172727108001709
            }
        }
    ],
    "meshes" : [
        {
            "name" : "Cylinder.007",
            "primitives" : [
                {
                    "attributes" : {
                        "POSITION" : 0,
                        "NORMAL" : 1,
                        "TEXCOORD_0" : 2
                    },
                    "indices" : 3,
                    "material" : 0
                },
                {
                    "attributes" : {
                        "POSITION" : 4,
                        "NORMAL" : 5,
                        "TEXCOORD_0" : 6
                    },
                    "indices" : 7,
                    "material" : 1
                }
            ]
        },
        {
            "name" : "Cylinder.008",
            "primitives" : [
                {
                    "attributes" : {
                        "POSITION" : 8,
                        "NORMAL" : 9,
                        "TEXCOORD_0" : 10
                    },
                    "indices" : 3,
                    "material" : 0
                },
                {
                    "attributes" : {
                        "POSITION" : 11,
                        "NORMAL" : 12,
                        "TEXCOORD_0" : 13
                    },
                    "indices" : 7,
                    "material" : 1
                }
            ]
        }
    ],
    "textures" : [
        {
            "sampler" : 0,
            "source" : 0
        }
    ],
    "images" : [
        {
            "bufferView" : 8,
            "mimeType" : "image/png",
            "name" : "tomato"
        }
    ],
    "accessors" : [
        {
            "bufferView" : 0,
            "componentType" : 5126,
            "count" : 1490,
            "max" : [
                1.0735397338867188,
                0.10000002384185791,
                1.024088740348816
            ],
            "min" : [
                -1.0345855951309204,
                -0.10000002384185791,
                -1.072684407234192
            ],
            "type" : "VEC3"
        },
        {
            "bufferView" : 1,
            "componentType" : 5126,
            "count" : 1490,
            "type" : "VEC3"
        },
        {
            "bufferView" : 2,
            "componentType" : 5126,
            "count" : 1490,
            "type" : "VEC2"
        },
        {
            "bufferView" : 3,
            "componentType" : 5123,
            "count" : 5376,
            "type" : "SCALAR"
        },
        {
            "bufferView" : 4,
            "componentType" : 5126,
            "count" : 419,
            "max" : [
                1.0588603019714355,
                0.10000002384185791,
                1.0107860565185547
            ],
            "min" : [
                -1.0219216346740723,
                -0.10000002384185791,
                -1.0581965446472168
            ],
            "type" : "VEC3"
        },
        {
            "bufferView" : 5,
            "componentType" : 5126,
            "count" : 419,
            "type" : "VEC3"
        },
        {
            "bufferView" : 6,
            "componentType" : 5126,
            "count" : 419,
            "type" : "VEC2"
        },
        {
            "bufferView" : 7,
            "componentType" : 5123,
            "count" : 1140,
            "type" : "SCALAR"
        },
        {
            "bufferView" : 9,
            "componentType" : 5126,
            "count" : 1490,
            "max" : [
                1.0735397338867188,
                0.10000002384185791,
                1.024088740348816
            ],
            "min" : [
                -1.0345855951309204,
                -0.10000002384185791,
                -1.072684407234192
            ],
            "type" : "VEC3"
        },
        {
            "bufferView" : 10,
            "componentType" : 5126,
            "count" : 1490,
            "type" : "VEC3"
        },
        {
            "bufferView" : 11,
            "componentType" : 5126,
            "count" : 1490,
            "type" : "VEC2"
        },
        {
            "bufferView" : 12,
            "componentType" : 5126,
            "count" : 419,
            "max" : [
                1.0588603019714355,
                0.10000002384185791,
                1.0107860565185547
            ],
            "min" : [
                -1.0219216346740723,
                -0.10000002384185791,
                -1.0581965446472168
            ],
            "type" : "VEC3"
        },
        {
            "bufferView" : 13,
            "componentType" : 5126,
            "count" : 419,
            "type" : "VEC3"
        },
        {
            "bufferView" : 14,
            "componentType" : 5126,
            "count" : 419,
            "type" : "VEC2"
        },
        {
            "bufferView" : 15,
            "componentType" : 5126,
            "count" : 120,
            "max" : [
                4.975000001490116
            ],
            "min" : [
                0.016666668156782787
            ],
            "type" : "SCALAR"
        },
        {
            "bufferView" : 16,
            "componentType" : 5126,
            "count" : 120,
            "type" : "VEC3"
        },
        {
            "bufferView" : 17,
            "componentType" : 5126,
            "count" : 120,
            "type" : "VEC4"
        },
        {
            "bufferView" : 18,
            "componentType" : 5126,
            "count" : 120,
            "type" : "VEC3"
        },
        {
            "bufferView" : 19,
            "componentType" : 5126,
            "count" : 120,
            "type" : "VEC4"
        }
    ],
    "bufferViews" : [
        {
            "buffer" : 0,
            "byteLength" : 17880,
            "byteOffset" : 0
        },
        {
            "buffer" : 0,
            "byteLength" : 17880,
            "byteOffset" : 17880
        },
        {
            "buffer" : 0,
            "byteLength" : 11920,
            "byteOffset" : 35760
        },
        {
            "buffer" : 0,
            "byteLength" : 10752,
            "byteOffset" : 47680
        },
        {
            "buffer" : 0,
            "byteLength" : 5028,
            "byteOffset" : 58432
        },
        {
            "buffer" : 0,
            "byteLength" : 5028,
            "byteOffset" : 63460
        },
        {
            "buffer" : 0,
            "byteLength" : 3352,
            "byteOffset" : 68488
        },
        {
            "buffer" : 0,
            "byteLength" : 2280,
            "byteOffset" : 71840
        },
        {
            "buffer" : 0,
            "byteLength" : 508518,
            "byteOffset" : 74120
        },
        {
            "buffer" : 0,
            "byteLength" : 17880,
            "byteOffset" : 582640
        },
        {
            "buffer" : 0,
            "byteLength" : 17880,
            "byteOffset" : 600520
        },
        {
            "buffer" : 0,
            "byteLength" : 11920,
            "byteOffset" : 618400
        },
        {
            "buffer" : 0,
            "byteLength" : 5028,
            "byteOffset" : 630320
        },
        {
            "buffer" : 0,
            "byteLength" : 5028,
            "byteOffset" : 635348
        },
        {
            "buffer" : 0,
            "byteLength" : 3352,
            "byteOffset" : 640376
        },
        {
            "buffer" : 0,
            "byteLength" : 480,
            "byteOffset" : 643728
        },
        {
            "buffer" : 0,
            "byteLength" : 1440,
            "byteOffset" : 644208
        },
        {
            "buffer" : 0,
            "byteLength" : 1920,
            "byteOffset" : 645648
        },
        {
            "buffer" : 0,
            "byteLength" : 1440,
            "byteOffset" : 647568
        },
        {
            "buffer" : 0,
            "byteLength" : 1920,
            "byteOffset" : 649008
        }
    ],
    "samplers" : [
        {
            "magFilter" : 9729,
            "minFilter" : 9987
        }
    ],
    "buffers" : [
        {
            "byteLength" : 650928,
            "uri" : "data:application/octet-stream;base64,"
        }
    ]
}
