{
    "asset" : {
        "generator" : "Khronos glTF Blender I/O v1.5.17",
        "version" : "2.0"
    },
    "scene" : 0,
    "scenes" : [
        {
            "name" : "Scene",
            "nodes" : [
                0,
                1,
                2,
                3,
                4,
                5,
                6,
                7,
                8,
                9,
                10
            ]
        }
    ],
    "nodes" : [
        {
            "mesh" : 0,
            "name" : "Circle.004",
            "translation" : [
                0.7158762812614441,
                0,
                0
            ]
        },
        {
            "mesh" : 1,
            "name" : "Circle.005",
            "scale" : [
                1,
                -1,
                1
            ],
            "translation" : [
                0.7158762812614441,
                0,
                0
            ]
        },
        {
            "mesh" : 2,
            "name" : "Circle.007",
            "rotation" : [
                0,
                0,
                0.08575713634490967,
                0.9963160753250122
            ],
            "scale" : [
                0.8209955096244812,
                0.6047735214233398,
                0.8209955096244812
            ],
            "translation" : [
                0.3901563882827759,
                2.2096405029296875,
                0
            ]
        },
        {
            "mesh" : 3,
            "name" : "Cube.002",
            "scale" : [
                0.9000000357627869,
                0.013251829892396927,
                0.9000000357627869
            ],
            "translation" : [
                0.7111095786094666,
                1.3889245986938477,
                0.012796216644346714
            ]
        },
        {
            "mesh" : 4,
            "name" : "Cube.003",
            "scale" : [
                0.9000000357627869,
                0.013251829892396927,
                0.9000000357627869
            ],
            "translation" : [
                0.7111095786094666,
                1.3889245986938477,
                0.012796216644346714
            ]
        },
        {
            "name" : "Empty.001",
            "translation" : [
                0.7158762812614441,
                2.036417245864868,
                0.8304853439331055
            ]
        },
        {
            "name" : "Camera.001",
            "rotation" : [
                0.5407447218894958,
                0,
                0,
                0.8411867618560791
            ],
            "translation" : [
                0,
                4.718376159667969,
                6.905521869659424
            ]
        },
        {
            "mesh" : 5,
            "name" : "Plane.002",
            "translation" : [
                0.7158762812614441,
                0.6307716965675354,
                0
            ]
        },
        {
            "name" : "Sun.001",
            "rotation" : [
                -0.13514244556427002,
                -0.09188432991504669,
                -0.12602178752422333,
                0.978474497795105
            ],
            "translation" : [
                2.344594955444336,
                5.5902605056762695,
                -1.4478482007980347
            ]
        },
        {
            "name" : "Light",
            "rotation" : [
                0.16907575726509094,
                0.7558803558349609,
                -0.27217137813568115,
                0.570947527885437
            ],
            "translation" : [
                4.076245307922363,
                5.903861999511719,
                -1.0054539442062378
            ]
        },
        {
            "name" : "Camera",
            "rotation" : [
                0.483536034822464,
                0.33687159419059753,
                -0.20870360732078552,
                0.7804827094078064
            ],
            "translation" : [
                7.358891487121582,
                4.958309173583984,
                6.925790786743164
            ]
        }
    ],
    "materials" : [
        {
            "doubleSided" : true,
            "name" : "Material.015",
            "pbrMetallicRoughness" : {
                "baseColorFactor" : [
                    1,
                    0.40280652046203613,
                    0.05059494078159332,
                    1
                ]
            }
        },
        {
            "doubleSided" : true,
            "name" : "Material.016",
            "pbrMetallicRoughness" : {
                "baseColorFactor" : [
                    1,
                    0.7037339210510254,
                    0.3472784757614136,
                    1
                ]
            }
        },
        {
            "doubleSided" : true,
            "name" : "Material.020",
            "pbrMetallicRoughness" : {
                "baseColorFactor" : [
                    0.4714285731315613,
                    0.036370228976011276,
                    0.011189154349267483,
                    1
                ]
            }
        },
        {
            "doubleSided" : true,
            "name" : "Material.021",
            "pbrMetallicRoughness" : {
                "baseColorFactor" : [
                    1,
                    0.11991950124502182,
                    0.06314811110496521,
                    1
                ]
            }
        },
        {
            "doubleSided" : true,
            "name" : "Material.023",
            "pbrMetallicRoughness" : {
                "baseColorFactor" : [
                    1,
                    0.17893452942371368,
                    0.10515636205673218,
                    1
                ]
            }
        },
        {
            "doubleSided" : true,
            "name" : "Material.022",
            "pbrMetallicRoughness" : {
                "baseColorFactor" : [
                    1,
                    0.7931862473487854,
                    0.29084065556526184,
                    1
                ]
            }
        },
        {
            "doubleSided" : true,
            "name" : "Material.025",
            "pbrMetallicRoughness" : {
                "baseColorFactor" : [
                    0.40296605229377747,
                    1,
                    0.1147344559431076,
                    1
                ]
            }
        }
    ],
    "meshes" : [
        {
            "name" : "Circle.003",
            "primitives" : [
                {
                    "attributes" : {
                        "POSITION" : 0,
                        "NORMAL" : 1
                    },
                    "indices" : 2,
                    "material" : 0
                },
                {
                    "attributes" : {
                        "POSITION" : 3,
                        "NORMAL" : 4
                    },
                    "indices" : 5,
                    "material" : 1
                }
            ]
        },
        {
            "name" : "Circle.006",
            "primitives" : [
                {
                    "attributes" : {
                        "POSITION" : 6,
                        "NORMAL" : 7
                    },
                    "indices" : 8,
                    "material" : 0
                },
                {
                    "attributes" : {
                        "POSITION" : 9,
                        "NORMAL" : 10
                    },
                    "indices" : 11,
                    "material" : 1
                }
            ]
        },
        {
            "name" : "Circle.008",
            "primitives" : [
                {
                    "attributes" : {
                        "POSITION" : 12,
                        "NORMAL" : 13,
                        "TEXCOORD_0" : 14
                    },
                    "indices" : 15,
                    "material" : 2
                },
                {
                    "attributes" : {
                        "POSITION" : 16,
                        "NORMAL" : 17,
                        "TEXCOORD_0" : 18
                    },
                    "indices" : 19,
                    "material" : 3
                }
            ]
        },
        {
            "name" : "Cube.002",
            "primitives" : [
                {
                    "attributes" : {
                        "POSITION" : 20,
                        "NORMAL" : 21,
                        "TEXCOORD_0" : 22
                    },
                    "indices" : 23,
                    "material" : 4
                }
            ]
        },
        {
            "name" : "Cube.003",
            "primitives" : [
                {
                    "attributes" : {
                        "POSITION" : 24,
                        "NORMAL" : 25
                    },
                    "indices" : 26,
                    "material" : 5
                }
            ]
        },
        {
            "name" : "Plane.007",
            "primitives" : [
                {
                    "attributes" : {
                        "POSITION" : 27,
                        "NORMAL" : 28
                    },
                    "indices" : 29,
                    "material" : 6
                }
            ]
        }
    ],
    "accessors" : [
        {
            "bufferView" : 0,
            "componentType" : 5126,
            "count" : 96,
            "max" : [
                1,
                0.3037396967411041,
                1
            ],
            "min" : [
                -1,
                0,
                -1
            ],
            "type" : "VEC3"
        },
        {
            "bufferView" : 1,
            "componentType" : 5126,
            "count" : 96,
            "type" : "VEC3"
        },
        {
            "bufferView" : 2,
            "componentType" : 5123,
            "count" : 474,
            "type" : "SCALAR"
        },
        {
            "bufferView" : 3,
            "componentType" : 5126,
            "count" : 33,
            "max" : [
                1,
                0.3037396967411041,
                1
            ],
            "min" : [
                -1,
                0.30373963713645935,
                -1
            ],
            "type" : "VEC3"
        },
        {
            "bufferView" : 4,
            "componentType" : 5126,
            "count" : 33,
            "type" : "VEC3"
        },
        {
            "bufferView" : 5,
            "componentType" : 5123,
            "count" : 96,
            "type" : "SCALAR"
        },
        {
            "bufferView" : 6,
            "componentType" : 5126,
            "count" : 97,
            "max" : [
                0.9768492579460144,
                -3.1495420932769775,
                0.9999999403953552
            ],
            "min" : [
                -1,
                -3.704956531524658,
                -1
            ],
            "type" : "VEC3"
        },
        {
            "bufferView" : 7,
            "componentType" : 5126,
            "count" : 97,
            "type" : "VEC3"
        },
        {
            "bufferView" : 8,
            "componentType" : 5123,
            "count" : 480,
            "type" : "SCALAR"
        },
        {
            "bufferView" : 9,
            "componentType" : 5126,
            "count" : 33,
            "max" : [
                0.9727739095687866,
                -3.1495420932769775,
                0.9999999403953552
            ],
            "min" : [
                -1,
                -3.206016778945923,
                -1
            ],
            "type" : "VEC3"
        },
        {
            "bufferView" : 10,
            "componentType" : 5126,
            "count" : 33,
            "type" : "VEC3"
        },
        {
            "bufferView" : 11,
            "componentType" : 5123,
            "count" : 96,
            "type" : "SCALAR"
        },
        {
            "bufferView" : 12,
            "componentType" : 5126,
            "count" : 128,
            "max" : [
                1.7135486602783203,
                0.7122470140457153,
                0.9135905504226685
            ],
            "min" : [
                -0.7676986455917358,
                -0.6660866737365723,
                -0.9495937824249268
            ],
            "type" : "VEC3"
        },
        {
            "bufferView" : 13,
            "componentType" : 5126,
            "count" : 128,
            "type" : "VEC3"
        },
        {
            "bufferView" : 14,
            "componentType" : 5126,
            "count" : 128,
            "type" : "VEC2"
        },
        {
            "bufferView" : 15,
            "componentType" : 5123,
            "count" : 360,
            "type" : "SCALAR"
        },
        {
            "bufferView" : 16,
            "componentType" : 5126,
            "count" : 128,
            "max" : [
                1.7135486602783203,
                0.7122470140457153,
                0.9135905504226685
            ],
            "min" : [
                -0.7676986455917358,
                -0.6660866737365723,
                -0.9495937824249268
            ],
            "type" : "VEC3"
        },
        {
            "bufferView" : 17,
            "componentType" : 5126,
            "count" : 128,
            "type" : "VEC3"
        },
        {
            "bufferView" : 18,
            "componentType" : 5126,
            "count" : 128,
            "type" : "VEC2"
        },
        {
            "bufferView" : 19,
            "componentType" : 5123,
            "count" : 384,
            "type" : "SCALAR"
        },
        {
            "bufferView" : 20,
            "componentType" : 5126,
            "count" : 919,
            "max" : [
                1.1309633255004883,
                3.0917863845825195,
                1.0968931913375854
            ],
            "min" : [
                -1.1058154106140137,
                -11.328049659729004,
                -1.1253290176391602
            ],
            "type" : "VEC3"
        },
        {
            "bufferView" : 21,
            "componentType" : 5126,
            "count" : 919,
            "type" : "VEC3"
        },
        {
            "bufferView" : 22,
            "componentType" : 5126,
            "count" : 919,
            "type" : "VEC2"
        },
        {
            "bufferView" : 23,
            "componentType" : 5123,
            "count" : 2304,
            "type" : "SCALAR"
        },
        {
            "bufferView" : 24,
            "componentType" : 5126,
            "count" : 386,
            "max" : [
                0.9971789121627808,
                10.814092636108398,
                0.9881948828697205
            ],
            "min" : [
                -1.0026404857635498,
                -14.751812934875488,
                -1.0101079940795898
            ],
            "type" : "VEC3"
        },
        {
            "bufferView" : 25,
            "componentType" : 5126,
            "count" : 386,
            "type" : "VEC3"
        },
        {
            "bufferView" : 26,
            "componentType" : 5123,
            "count" : 2304,
            "type" : "SCALAR"
        },
        {
            "bufferView" : 27,
            "componentType" : 5126,
            "count" : 880,
            "max" : [
                1,
                0,
                1
            ],
            "min" : [
                -1,
                0,
                -1
            ],
            "type" : "VEC3"
        },
        {
            "bufferView" : 28,
            "componentType" : 5126,
            "count" : 880,
            "type" : "VEC3"
        },
        {
            "bufferView" : 29,
            "componentType" : 5123,
            "count" : 4890,
            "type" : "SCALAR"
        }
    ],
    "bufferViews" : [
        {
            "buffer" : 0,
            "byteLength" : 1152,
            "byteOffset" : 0
        },
        {
            "buffer" : 0,
            "byteLength" : 1152,
            "byteOffset" : 1152
        },
        {
            "buffer" : 0,
            "byteLength" : 948,
            "byteOffset" : 2304
        },
        {
            "buffer" : 0,
            "byteLength" : 396,
            "byteOffset" : 3252
        },
        {
            "buffer" : 0,
            "byteLength" : 396,
            "byteOffset" : 3648
        },
        {
            "buffer" : 0,
            "byteLength" : 192,
            "byteOffset" : 4044
        },
        {
            "buffer" : 0,
            "byteLength" : 1164,
            "byteOffset" : 4236
        },
        {
            "buffer" : 0,
            "byteLength" : 1164,
            "byteOffset" : 5400
        },
        {
            "buffer" : 0,
            "byteLength" : 960,
            "byteOffset" : 6564
        },
        {
            "buffer" : 0,
            "byteLength" : 396,
            "byteOffset" : 7524
        },
        {
            "buffer" : 0,
            "byteLength" : 396,
            "byteOffset" : 7920
        },
        {
            "buffer" : 0,
            "byteLength" : 192,
            "byteOffset" : 8316
        },
        {
            "buffer" : 0,
            "byteLength" : 1536,
            "byteOffset" : 8508
        },
        {
            "buffer" : 0,
            "byteLength" : 1536,
            "byteOffset" : 10044
        },
        {
            "buffer" : 0,
            "byteLength" : 1024,
            "byteOffset" : 11580
        },
        {
            "buffer" : 0,
            "byteLength" : 720,
            "byteOffset" : 12604
        },
        {
            "buffer" : 0,
            "byteLength" : 1536,
            "byteOffset" : 13324
        },
        {
            "buffer" : 0,
            "byteLength" : 1536,
            "byteOffset" : 14860
        },
        {
            "buffer" : 0,
            "byteLength" : 1024,
            "byteOffset" : 16396
        },
        {
            "buffer" : 0,
            "byteLength" : 768,
            "byteOffset" : 17420
        },
        {
            "buffer" : 0,
            "byteLength" : 11028,
            "byteOffset" : 18188
        },
        {
            "buffer" : 0,
            "byteLength" : 11028,
            "byteOffset" : 29216
        },
        {
            "buffer" : 0,
            "byteLength" : 7352,
            "byteOffset" : 40244
        },
        {
            "buffer" : 0,
            "byteLength" : 4608,
            "byteOffset" : 47596
        },
        {
            "buffer" : 0,
            "byteLength" : 4632,
            "byteOffset" : 52204
        },
        {
            "buffer" : 0,
            "byteLength" : 4632,
            "byteOffset" : 56836
        },
        {
            "buffer" : 0,
            "byteLength" : 4608,
            "byteOffset" : 61468
        },
        {
            "buffer" : 0,
            "byteLength" : 10560,
            "byteOffset" : 66076
        },
        {
            "buffer" : 0,
            "byteLength" : 10560,
            "byteOffset" : 76636
        },
        {
            "buffer" : 0,
            "byteLength" : 9780,
            "byteOffset" : 87196
        }
    ],
    "buffers" : [
        {
            "byteLength" : 96976,
            "uri" : "data:application/octet-stream;base64,"
        }
    ]
}
